HIERARCHY
ROOT Hip
{
   OFFSET 0.00000 0.00000 0.00000
   CHANNELS 6 Xposition Yposition Zposition Zrotation Yrotation Xrotation
   JOINT Head
   {
      OFFSET 0.000000 26.131601 0.000000
      CHANNELS 3 Zrotation Yrotation Xrotation
      End Site
      {
         OFFSET 0.000000 15.569401 0.000000
      }
      JOINT LeftShoulder
      {
         OFFSET 8.640060 0.000000 0.000000
         CHANNELS 3 Zrotation Yrotation Xrotation
         JOINT LeftHand
         {
            OFFSET 0.000000 -12.625800 0.000000
            CHANNELS 3 Zrotation Yrotation Xrotation
            End Site
            {
               OFFSET 0.000000 -13.828100 0.000000
            }
         }
      }
      JOINT RightShoulder
      {
         OFFSET -9.208320 0.000000 0.000000
         CHANNELS 3 Zrotation Yrotation Xrotation
         JOINT RghtHand
         {
            OFFSET 0.000000 -15.128301 0.000000
            CHANNELS 3 Zrotation Yrotation Xrotation
            End Site
            {
               OFFSET 0.000000 -10.362880 0.000000
            }
         }
      }
   }
   JOINT LeftHip
   {
      OFFSET 9.142430 0.000000 0.000000
      CHANNELS 3 Zrotation Yrotation Xrotation
      JOINT LeftKnee
      {
         OFFSET 0.000000 -25.770800 0.000000
         CHANNELS 3 Zrotation Yrotation Xrotation
         JOINT LeftFoot
         {
            OFFSET 0.000000 -19.649300 0.000000
            CHANNELS 3 Zrotation Yrotation Xrotation
            End Site
            {
               OFFSET 0.000000 0.000000 12.805100
            }
         }
      }
   }
   JOINT RightHip
   {
      OFFSET -9.142430 0.000000 0.000000
      CHANNELS 3 Zrotation Yrotation Xrotation
      JOINT RightKnee
      {
         OFFSET 0.000000 -23.323302 0.000000
         CHANNELS 3 Zrotation Yrotation Xrotation
         JOINT RightFoot
         {
            OFFSET 0.000000 -20.002401 0.000000
            CHANNELS 3 Zrotation Yrotation Xrotation
            End Site
            {
               OFFSET 0.000000 0.000000 12.862299
            }
         }
      }
   }
}
MOTION
Frames: 29
Frame Time: 0.016670
8.147142 41.514344 -15.484459 148.355821 89.792317 152.551414 -1.165975 23.508140 -27.845298 8.508017 -13.142585 19.157531 -7.902957 -0.701172 18.357312 -30.746240 -13.133634 42.379063 -26.815198 5.501562 43.685583 -16.754066 -59.395947 2.375584 38.923622 -53.420228 8.186708 -11.229836 -50.759668 -31.049599 -5.269893 -51.634482 3.325953 17.260132 -41.997911 -0.115978 -9.870618 -40.338479 -18.855415
8.125936 41.490158 -15.472673 182.953474 64.559904 187.205773 2.199041 -1.462369 -28.364859 0.685840 -21.602925 22.220617 -10.430377 -2.354299 16.596701 -38.551278 -15.612197 43.677103 -30.571151 5.974903 39.348088 -6.390715 -69.201489 -6.633809 37.947148 -60.564073 0.418554 -10.728134 -58.283896 -32.502753 -16.925813 -59.866950 22.847488 33.929474 -45.711512 -13.761262 -7.283464 -48.596533 -15.711631
8.110151 41.480631 -15.456081 182.811557 63.391621 186.947933 2.216278 -2.159747 -28.230155 -3.913176 -30.967576 24.307139 -13.419224 -3.591958 14.358559 -42.926182 -20.400049 44.941641 -34.801330 6.687180 35.639948 -6.107003 -69.536462 -6.838048 38.020354 -60.647872 0.134350 -10.786147 -58.431667 -32.554567 -18.671068 -60.350390 25.147435 35.675997 -45.174868 -14.683986 -7.281896 -48.826249 -15.634810
8.112203 41.475281 -15.444374 182.796817 62.922776 186.728930 2.257427 -2.182972 -27.869458 -8.866639 -39.164335 27.017448 -15.692807 -4.690003 12.048362 -47.316740 -24.841946 46.592754 -38.472840 6.840835 31.798120 -6.519363 -69.717571 -6.335080 37.953305 -60.627751 0.335448 -10.856902 -58.375578 -32.565133 -20.019904 -60.513646 26.740477 36.350089 -44.861167 -14.536526 -7.334993 -48.612502 -15.619316
8.093653 41.471133 -15.418643 182.763363 62.473165 186.526743 2.189180 -2.179129 -27.483988 -13.917701 -45.834828 30.367858 -17.301279 -5.587576 9.760915 -51.631971 -28.882145 48.592370 -41.588294 6.576036 28.071700 -6.721357 -69.886625 -6.046074 37.928635 -60.601338 0.414076 -10.939175 -58.336871 -32.592696 -21.429386 -60.753167 28.335130 37.069288 -44.536802 -14.350463 -7.398542 -48.401258 -15.627256
8.071579 41.466641 -15.386051 182.724895 62.090156 186.311988 2.144190 -2.150917 -27.079385 -18.875428 -50.802162 34.108954 -18.328859 -6.252268 7.663149 -55.823020 -32.484042 50.785079 -44.187830 6.032136 24.596884 -6.884963 -70.037730 -5.803432 37.850251 -60.603790 0.462529 -11.009443 -58.322589 -32.610414 -22.978373 -61.002749 30.012128 37.819352 -44.197201 -14.088504 -7.479749 -48.177678 -15.667610
8.044878 41.457776 -15.346427 182.709063 61.770619 186.092807 2.088071 -2.017812 -26.666423 -23.485044 -54.329985 37.850774 -18.951036 -6.677717 5.853679 -59.831931 -35.612268 53.143427 -46.208012 5.278263 21.457056 -7.090104 -70.143659 -5.538661 37.744025 -60.635735 0.581869 -11.078869 -58.322015 -32.626731 -24.676999 -61.253621 31.811903 38.650705 -43.822798 -13.792726 -7.595358 -47.938448 -15.753124
8.011566 41.449956 -15.286380 182.737750 61.455932 185.935767 1.981631 -1.837823 -26.271716 -27.634623 -56.811673 41.413124 -19.369552 -6.885477 4.339924 -63.585537 -38.284303 55.590817 -47.755330 4.426085 18.726277 -7.144327 -70.242615 -5.393329 37.654614 -60.691422 0.647018 -11.152739 -58.354589 -32.656743 -26.440741 -61.594858 33.647626 39.363606 -43.487189 -13.327832 -7.686331 -47.670069 -15.813314
7.996226 41.438798 -15.237982 182.717642 61.469435 185.685851 1.840687 -1.331357 -25.780361 -31.347553 -58.514620 44.722416 -19.624590 -6.899765 3.002213 -67.029660 -40.601718 57.970643 -48.912323 3.546547 16.351277 -7.726071 -70.343941 -4.731170 37.541814 -60.641514 0.949916 -11.256053 -58.238598 -32.679955 -28.326198 -61.815425 35.488679 39.941273 -43.102872 -12.671278 -7.830194 -47.277091 -15.939056
7.930367 41.423878 -15.129004 182.839820 61.077662 185.691793 1.789893 -1.218867 -25.479566 -34.619702 -59.591666 47.776190 -19.737838 -6.736932 1.808646 -70.142744 -42.486304 60.346033 -49.718204 2.676424 14.378330 -7.217469 -70.310159 -5.157428 37.454350 -60.859929 0.911949 -11.326845 -58.450935 -32.750969 -30.096559 -62.503041 37.372548 40.392212 -42.778609 -12.108791 -7.924316 -46.932368 -16.004178
7.889828 41.430287 -15.034271 182.906633 61.016033 185.586567 1.681526 -0.777503 -25.095659 -37.589130 -60.266727 50.587301 -19.814707 -6.418817 0.782138 -72.887565 -44.133301 62.615213 -50.213386 1.827882 12.659916 -7.259760 -70.411908 -4.989589 37.419239 -60.882804 1.009393 -11.388881 -58.449952 -32.753359 -31.920469 -63.125886 39.203927 40.515029 -42.399171 -11.341404 -7.997910 -46.415005 -16.033205
7.838310 41.422600 -14.916415 183.025041 60.931209 185.554301 1.585619 -0.375988 -24.746004 -40.238519 -60.711748 53.126106 -20.000290 -5.967697 -0.128845 -75.336563 -45.525274 64.714765 -50.549038 1.043326 11.267543 -7.181059 -70.573107 -4.899288 37.485892 -60.890508 1.060610 -11.479453 -58.457670 -32.793948 -33.743651 -63.850541 41.058432 40.523062 -42.045412 -10.557948 -8.123060 -45.912610 -16.135489
7.768379 41.417508 -14.809438 183.047786 60.915711 185.438598 1.462515 0.040326 -24.443799 -42.632586 -60.889620 55.415538 -20.159216 -5.397811 -0.891416 -77.524286 -46.781335 66.591612 -50.837200 0.324723 10.150898 -7.154665 -70.495940 -4.925958 37.367401 -61.054979 1.264086 -11.518539 -58.575163 -32.805054 -35.567537 -64.544352 42.747835 40.298338 -41.776668 -9.551544 -8.268873 -45.423442 -16.275251
7.694483 41.415557 -14.677801 183.146455 60.877777 185.413763 1.370073 0.370103 -24.143769 -44.764711 -60.863775 57.456316 -20.392225 -4.720480 -1.659374 -79.433153 -47.858357 68.302834 -51.022514 -0.337815 9.271353 -6.921941 -70.598843 -5.044449 37.419410 -61.127536 1.268704 -11.559003 -58.651155 -32.810204 -37.315502 -65.321552 44.424852 39.945870 -41.523725 -8.583673 -8.402955 -44.957159 -16.401816
7.626060 41.423544 -14.560580 183.166549 60.911941 185.265138 1.176235 0.780069 -23.806476 -46.702658 -60.710232 59.263878 -20.607937 -3.937766 -2.300878 -81.119923 -48.749557 69.832674 -51.082623 -0.963517 8.555603 -6.907035 -70.561844 -5.025874 37.321250 -61.243683 1.401251 -11.566271 -58.732175 -32.782231 -39.110626 -65.974505 46.080763 39.548779 -41.280075 -7.605509 -8.518025 -44.522130 -16.508634
7.550175 41.426315 -14.425070 183.244126 60.863344 185.210551 1.044443 1.114183 -23.541545 -48.439869 -60.498906 60.849725 -20.966328 -3.083820 -2.844312 -82.639934 -49.480759 71.156644 -51.063836 -1.548088 8.082393 -6.600059 -70.588557 -5.228223 37.322541 -61.334074 1.372087 -11.596447 -58.823385 -32.788173 -40.871644 -66.640120 47.770172 39.185991 -41.035708 -6.682663 -8.649945 -44.128158 -16.637479
7.467344 41.427521 -14.281840 183.304765 60.788895 185.143192 0.978005 1.442302 -23.256712 -50.006499 -60.291132 62.204363 -21.436877 -2.162601 -3.357633 -83.988234 -50.120994 72.319375 -51.115981 -2.091085 7.784773 -6.214953 -70.492852 -5.541588 37.253378 -61.494024 1.379172 -11.605177 -58.970296 -32.785649 -42.629475 -67.261688 49.471832 38.857407 -40.805025 -5.813080 -8.773172 -43.784255 -16.755955
7.390411 41.424074 -14.146127 183.306704 60.680070 184.982164 0.930707 1.733448 -22.891326 -51.427670 -60.126107 63.354478 -21.994980 -1.179397 -3.796543 -85.158464 -50.751782 73.321821 -51.255000 -2.597436 7.582638 -5.971792 -70.453026 -5.706306 37.143860 -61.622957 1.369717 -11.638559 -59.084524 -32.803903 -44.429981 -67.718607 51.202909 38.634866 -40.615085 -5.020268 -8.898809 -43.527573 -16.888742
7.313828 41.420330 -14.013902 183.272922 60.560268 184.758803 0.937325 1.999320 -22.513564 -52.705004 -59.981601 64.334207 -22.666065 -0.137492 -4.281085 -86.156785 -51.377253 74.204999 -51.453922 -3.079459 7.442174 -5.712346 -70.411218 -5.897390 37.025195 -61.730587 1.317407 -11.666157 -59.180557 -32.813475 -46.251698 -68.078852 52.946598 38.492566 -40.436571 -4.273081 -9.021925 -43.311872 -17.018924
7.228271 41.402883 -13.877101 183.200577 60.332536 184.522041 0.942836 2.179510 -22.114689 -53.834762 -59.884005 65.176069 -23.427699 0.968597 -4.826279 -87.020633 -52.014981 75.007655 -51.802532 -3.536447 7.415812 -5.323192 -70.365770 -6.232657 36.907836 -61.857260 1.194526 -11.699492 -59.307209 -32.836387 -48.082008 -68.342484 54.741688 38.557559 -40.287929 -3.673634 -9.157610 -43.173503 -17.174746
7.149039 41.380262 -13.741218 183.101252 60.127303 184.237413 0.977868 2.379456 -21.735457 -54.837359 -59.751396 65.911285 -24.237691 2.147419 -5.428406 -87.761210 -52.572448 75.724361 -52.148341 -3.986045 7.446062 -5.004158 -70.343162 -6.492751 36.774773 -61.988734 1.090670 -11.760997 -59.435739 -32.893108 -49.902581 -68.514891 56.552757 38.740198 -40.108981 -3.162665 -9.308350 -43.027651 -17.347272
7.067152 41.356887 -13.606560 182.986574 59.921017 183.944029 1.013671 2.572567 -21.342985 -55.727052 -59.661723 66.557052 -25.041664 3.411991 -6.037796 -88.375804 -53.118443 76.361399 -52.600014 -4.418042 7.494707 -4.685842 -70.285747 -6.769047 36.620172 -62.113638 0.978716 -11.810574 -59.555575 -32.933775 -51.743331 -68.603369 58.406361 39.105763 -39.927732 -2.800960 -9.439245 -42.908027 -17.492186
6.984723 41.329121 -13.468984 182.850666 59.737914 183.619582 1.043913 2.775434 -20.971527 -56.492679 -59.558382 67.154625 -25.800433 4.780514 -6.699456 -88.932765 -53.655975 76.980514 -53.329181 -4.824714 7.696347 -4.422372 -70.263590 -7.001283 36.503424 -62.217095 0.887940 -11.859001 -59.656812 -32.969443 -53.577114 -68.662211 60.261728 39.508669 -39.733123 -2.477287 -9.604301 -42.786176 -17.682303
6.910878 41.305918 -13.315359 182.791039 59.574918 183.359761 1.073194 3.010827 -20.598324 -57.172474 -59.475204 67.698328 -26.535198 6.261138 -7.374834 -89.435112 -54.146745 77.551914 -54.325586 -5.199833 7.970981 -4.144547 -70.331353 -7.144254 36.502894 -62.232504 0.754330 -11.933503 -59.690867 -33.022103 -55.364748 -68.706970 62.158027 39.925307 -39.503963 -2.211338 -9.734485 -42.636042 -17.812445
6.826654 41.272535 -13.161987 182.663861 59.424374 183.074341 1.096165 3.241608 -20.203700 -57.813726 -59.390114 68.163498 -27.121230 7.872341 -8.023804 -89.939166 -54.675852 78.050143 -55.812648 -5.508436 8.315439 -3.854069 -70.393412 -7.350736 36.516893 -62.275131 0.633636 -12.016525 -59.755802 -33.094152 -57.150969 -68.739960 63.998415 40.379085 -39.271720 -1.918267 -9.901137 -42.489733 -17.995187
6.737459 41.241888 -13.001607 182.544483 59.294020 182.821870 1.102552 3.543679 -19.923109 -58.333169 -59.380647 68.644754 -27.886237 9.564212 -8.740884 -90.378238 -55.131528 78.523263 -57.856729 -5.722329 8.583096 -3.473218 -70.383023 -7.663605 36.542079 -62.314951 0.497372 -12.075273 -59.822294 -33.137817 -58.899692 -68.797900 65.775637 40.770127 -39.050398 -1.564941 -10.067900 -42.347839 -18.174710
6.640051 41.205301 -12.836005 182.410993 59.170530 182.608727 1.030321 3.921283 -19.731334 -58.763758 -59.370340 69.131036 -28.719620 11.360733 -9.466131 -90.691498 -55.558968 78.956734 -60.868645 -5.755527 8.538962 -2.964097 -70.277811 -8.150466 36.566801 -62.436672 0.370241 -12.132106 -59.973207 -33.204043 -60.582719 -68.900770 67.479271 41.139961 -38.836524 -1.185044 -10.266322 -42.212905 -18.399348
6.544641 41.178297 -12.662904 182.324004 59.037942 182.447726 0.975737 4.377248 -19.608633 -59.157505 -59.427639 69.592135 -29.639367 13.270975 -10.142458 -91.051640 -55.975992 79.408736 -64.750487 -5.616963 8.604152 -2.361727 -70.245436 -8.659972 36.717669 -62.451555 0.122053 -12.177006 -60.057594 -33.244819 -62.193332 -69.061108 69.122600 41.341670 -38.635949 -0.764473 -10.434677 -42.075085 -18.572235
6.446163 41.152763 -12.481671 182.218027 58.936685 182.316532 0.898046 4.920008 -19.500888 -59.458935 -59.603899 70.064927 -30.759258 15.265374 -10.908982 -91.266934 -56.389967 79.803165 -69.394715 -5.310426 8.333055 -1.649534 -70.252956 -9.234902 36.997400 -62.389516 -0.230462 -12.232746 -60.105774 -33.295963 -63.749980 -69.295636 70.671961 41.386107 -38.453507 -0.257327 -10.616102 -41.943929 -18.762466
